<svg width="600" height="600" viewBox="0 0 600 600" fill="none" xmlns="http://www.w3.org/2000/svg">
<rect width="600" height="600" fill="#F5F5F5"/>
<rect width="600" height="600" fill="white"/>
<rect width="143" height="27" rx="13.5" transform="matrix(1 0 0 -1 341 506.831)" fill="#D9D9D9"/>
<rect width="143" height="27" rx="13.5" transform="matrix(1 0 0 -1 333 371.831)" fill="#D9D9D9"/>
<rect x="281" y="358.971" width="121.975" height="27" rx="13.5" transform="rotate(-89.5879 281 358.971)" fill="#D9D9D9"/>
<rect x="282" y="211.971" width="121.975" height="27" rx="13.5" transform="rotate(-89.5879 282 211.971)" fill="#D9D9D9"/>
<rect x="282" y="505.971" width="121.975" height="27" rx="13.5" transform="rotate(-89.5879 282 505.971)" fill="#D9D9D9"/>
<rect width="142" height="27" rx="13.5" transform="matrix(1 0 0 -1 336 237.831)" fill="#D9D9D9"/>
<rect width="99.1838" height="26.5592" rx="13.2796" transform="matrix(0.954892 -0.296953 -0.268454 -0.963292 464.624 509.049)" fill="#D9D9D9"/>
<rect width="99.1838" height="26.5592" rx="13.2796" transform="matrix(0.954892 -0.296953 -0.268454 -0.963292 456.789 374.515)" fill="#D9D9D9"/>
<rect width="99.1838" height="26.5592" rx="13.2796" transform="matrix(0.954892 -0.296953 -0.268454 -0.963292 459.401 240.037)" fill="#D9D9D9"/>
<rect x="245.647" y="505.831" width="132" height="27" rx="13.5" transform="rotate(-180 245.647 505.831)" fill="#D9D9D9"/>
<rect x="254.647" y="371.831" width="140" height="27" rx="13.5" transform="rotate(-180 254.647 371.831)" fill="#D9D9D9"/>
<rect x="257.647" y="237.831" width="140" height="27" rx="13.5" transform="rotate(-180 257.647 237.831)" fill="#D9D9D9"/>
<rect width="97.4266" height="26.5223" rx="13.2612" transform="matrix(-0.95321 -0.302309 0.263599 -0.964632 132.868 509.049)" fill="#D9D9D9"/>
<rect width="97.4266" height="26.5223" rx="13.2612" transform="matrix(-0.95321 -0.302309 0.263599 -0.964632 133.654 374.515)" fill="#D9D9D9"/>
<rect width="97.4266" height="26.5223" rx="13.2612" transform="matrix(-0.95321 -0.302309 0.263599 -0.964632 136.266 240.037)" fill="#D9D9D9"/>
</svg>
